<?xml version="1.0" encoding="UTF-8"?><svg id="a" xmlns="http://www.w3.org/2000/svg" xmlns:xlink="http://www.w3.org/1999/xlink" viewBox="0 0 554.24 136.06"><defs><style>.c{fill:none;}.d{fill:#00aa46;}.e{clip-path:url(#b);}</style><clipPath id="b"><rect class="c" width="554.24" height="136.06"/></clipPath></defs><g class="e"><path class="d" d="m39.35,22.1c9.26-9.2,21.2-13.23,33.87-13.23h9.38V0h-9.42C58.12,0,43.97,4.95,33.05,15.82c-10.99,10.94-15.9,24.92-15.9,40.19v22.9c0,.84-.07,1.9-.2,2.62-.32,1.71-1.03,3.1-2.18,4.25-1.03,1.02-2.29,1.61-3.24,1.95-.82.3-1.87.52-3,.69C6.05,88.79,0,88.92,0,88.92v27.48h8.19c10.43,0,20.02-3.16,27.18-10.28,7.17-7.12,10.32-16.24,10.32-26.07v-24.05c0-7.41,2.37-14.36,7.84-19.79,5.5-5.46,12.48-7.82,19.81-7.82h1.28v10.56c-2.5.17-4.25.4-6.53,1.12-2.4.76-4.68,2.01-6.68,3.98-3.34,3.31-4.73,7.56-4.73,11.95v24.05c0,12.85-4.13,24.67-13.42,33.91-9.25,9.2-21.2,13.23-33.87,13.23H0v8.86h9.42c15.06,0,29.2-4.95,40.13-15.82,10.99-10.93,15.9-24.92,15.9-40.18v-22.9c0-.84.07-1.9.2-2.62.32-1.71,1.03-3.1,2.18-4.25,1.03-1.02,2.29-1.61,3.24-1.95.82-.3,1.87-.52,3-.69,2.49-.37,8.53-.5,8.53-.5v-27.48h-8.19c-10.43,0-20.02,3.16-27.18,10.28-7.17,7.12-10.32,16.24-10.32,26.07v24.05c0,7.41-2.37,14.36-7.84,19.79-5.5,5.45-12.48,7.81-19.8,7.81h-1.28v-10.78c2.51-.17,4.41-.48,6.53-1.12,2.41-.73,4.68-1.79,6.68-3.76,3.35-3.31,4.73-7.56,4.73-11.95v-24.05c0-12.85,4.13-24.67,13.42-33.91"/><path class="d" d="m531.04,94.02h-.57c-5.09,0-7.24-3.06-7.24-9.39v-32.93c0-6.45,2.15-9.73,7.24-9.73h.57c4.87,0,7.13,3.28,7.13,9.73v32.93c0,6.34-2.26,9.39-7.13,9.39m-1.25,14.82h1.81c11.66,0,22.63-6.56,22.63-22.86v-35.98c0-16.52-10.86-22.86-22.63-22.86h-1.81c-11.65,0-22.63,6.34-22.63,22.86v35.98c0,16.3,11.09,22.86,22.63,22.86m-76.61-80.46l15.62,79.21h19.8l15.5-79.21h-16.3l-8.94,59.86h-.23l-9.62-59.86h-15.84Zm-16.18,49h-11.65l5.77-32.7h.23l5.66,32.7Zm-16.41-49l-16.29,79.21h15.84l2.83-16.07h16.52l2.83,16.07h16.07l-16.07-79.21h-21.73Zm-40.85,80.46h1.58c12.34,0,21.84-6.56,21.84-20.71v-1.47c0-27.16-29.08-19.12-29.08-32.02v-7.36c0-3.17,2.04-5.54,5.66-5.54h1.13c3.73,0,5.54,2.6,5.54,6.22v11.2h15.84v-11.99c0-14.26-9.85-20.03-21.05-20.03h-1.92c-11.32,0-21.27,6.22-21.27,20.03v7.92c0,26.59,29.08,18.33,29.08,32.48v.34c0,4.19-2.49,6.34-6.45,6.34h-.45c-4.64,0-6.79-2.38-6.79-6.34v-4.98h-15.95v5.66c0,14.48,10.52,20.26,22.29,20.26m-59.52-36.1h32.36v-12.45h-32.36v12.45Zm-35.87-29.54h8.03c3.85,0,5.77,2.6,5.77,6.9v16.75c0,4.19-2.15,6.79-6,6.79h-7.81v-30.44Zm31.12,64.39l-9.17-23.54c4.3-2.83,7.58-7.7,7.58-15.73v-19.8c0-12.11-6.9-20.14-19.35-20.14h-26.14v79.21h15.96v-20.03h7.02l7.69,20.03h16.41Zm-78.08,1.24h.79c13.24,0,22.52-6.79,22.52-22.4V28.38h-16.07v57.48c0,5.43-2.83,8.15-6.56,8.15h-.57c-3.74,0-6.68-2.72-6.68-8.15V28.38h-15.96v58.05c0,15.62,9.17,22.4,22.52,22.4m-52.96,0h.79c13.24,0,22.52-6.79,22.52-22.4V28.38h-16.07v57.48c0,5.43-2.83,8.15-6.56,8.15h-.57c-3.73,0-6.68-2.72-6.68-8.15V28.38h-15.95v58.05c0,15.62,9.17,22.4,22.52,22.4m-52.05,0h1.58c12.33,0,21.84-6.56,21.84-20.71v-1.47c0-27.16-29.08-19.12-29.08-32.02v-7.36c0-3.17,2.04-5.54,5.66-5.54h1.13c3.73,0,5.54,2.6,5.54,6.22v11.2h15.84v-11.99c0-14.26-9.85-20.03-21.05-20.03h-1.92c-11.32,0-21.27,6.22-21.27,20.03v7.92c0,26.59,29.08,18.33,29.08,32.48v.34c0,4.19-2.49,6.34-6.45,6.34h-.45c-4.64,0-6.79-2.38-6.79-6.34v-4.98h-15.96v5.66c0,14.48,10.52,20.26,22.29,20.26"/></g></svg>